<?xml version="1.0" standalone="no"?><!DOCTYPE svg PUBLIC "-//W3C//DTD SVG 1.1//EN" "http://www.w3.org/Graphics/SVG/1.1/DTD/svg11.dtd"><svg t="1693351088643" class="icon" viewBox="0 0 1179 1024" version="1.1" xmlns="http://www.w3.org/2000/svg" p-id="4227" xmlns:xlink="http://www.w3.org/1999/xlink" width="230.2734375" height="200"><path d="M1148.78081 39.686184H513.928257L265.734872 288.626016v564.437788H900.711833l248.068977-217.091457V42.547562" fill="#F6E89A" p-id="4228"></path><path d="M255.906663 308.406842a29.733443 29.733443 0 0 1-21.024903-50.758347L482.950737 8.708664a29.857851 29.857851 0 0 1 21.149311-8.70854h634.47933a29.733443 29.733443 0 1 1 0 59.466887h-622.038559L277.055974 299.698302a29.609035 29.609035 0 0 1-21.149311 8.70854z" fill="#8D4520" p-id="4229"></path><path d="M890.883624 872.969038h-634.47933a29.733443 29.733443 0 0 1-29.733443-29.733443V278.673399a29.857851 29.857851 0 0 1 59.591294 0v534.95316h604.621479a29.857851 29.857851 0 1 1 0 59.591294z" fill="#8D4520" p-id="4230"></path><path d="M900.711833 872.969038a29.982259 29.982259 0 0 1-22.393388-10.201432 29.609035 29.609035 0 0 1 2.861377-41.676584L1119.669406 612.583697V32.594945a29.733443 29.733443 0 1 1 59.466886 0v593.424785a29.609035 29.609035 0 0 1-10.201432 22.393388L920.617067 865.628983a30.106666 30.106666 0 0 1-19.905234 7.340055z" fill="#8D4520" p-id="4231"></path><path d="M890.883624 307.535988h-634.47933A19.03438 19.03438 0 0 1 236.374652 288.626016c0-10.947879 18.163526-20.402865 19.780827-20.776088h624.775528L1124.89453 25.752521a19.780826 19.780826 0 1 1 28.116143 27.867327l-246.078454 248.815424a24.881542 24.881542 0 0 1-16.048595 5.100716z" fill="#8D4520" p-id="4232"></path><path d="M890.883624 872.969038a19.780826 19.780826 0 0 1-20.029642-19.905234V287.630754a19.780826 19.780826 0 0 1 39.561653 0v565.43305a19.656418 19.656418 0 0 1-19.532011 19.905234z" fill="#8D4520" p-id="4233"></path><path d="M513.928257 586.33367a19.780826 19.780826 0 0 1-19.905234-19.780826v-60.586556a19.905234 19.905234 0 1 1 39.686061 0v60.586556a19.780826 19.780826 0 0 1-19.780827 19.780826z m0-139.958676a19.780826 19.780826 0 0 1-19.905234-19.780826v-79.37212a19.905234 19.905234 0 1 1 39.686061 0v79.37212a19.780826 19.780826 0 0 1-19.780827 19.780826z m0-158.74424a19.780826 19.780826 0 0 1-19.905234-19.780826v-79.37212a19.905234 19.905234 0 0 1 39.686061 0v79.37212a19.780826 19.780826 0 0 1-19.780827 19.780826z m0-158.619832a19.905234 19.905234 0 0 1-19.905234-19.905234V29.733568a19.905234 19.905234 0 0 1 39.686061 0v79.37212a19.905234 19.905234 0 0 1-19.780827 19.905234z" fill="#8D4520" p-id="4234"></path><path d="M265.734872 863.016421a19.905234 19.905234 0 0 1-12.440771-34.834159l90.071183-77.75482a19.905234 19.905234 0 1 1 26.001212 29.982258L278.673274 858.413336a19.656418 19.656418 0 0 1-12.938402 4.603085z m180.266775-155.50964a19.905234 19.905234 0 0 1-12.440771-34.958567l46.404076-40.059283a19.905234 19.905234 0 0 1 26.001212 29.982259l-46.528484 40.18369a19.656418 19.656418 0 0 1-13.436033 4.851901z" fill="#8D4520" p-id="4235"></path><path d="M1148.78081 644.805295H1069.906321a19.905234 19.905234 0 1 1 0-39.686061h79.37212a19.905234 19.905234 0 0 1 0 39.686061z m-158.74424 0H910.66445a19.905234 19.905234 0 0 1 0-39.686061h79.37212a19.905234 19.905234 0 0 1 0 39.686061z m-158.74424 0h-79.37212a19.905234 19.905234 0 0 1 0-39.686061h79.37212a19.905234 19.905234 0 1 1 0 39.686061z m-158.74424 0h-79.37212a19.905234 19.905234 0 0 1 0-39.686061h79.37212a19.905234 19.905234 0 1 1 0 39.686061z" fill="#8D4520" p-id="4236"></path><path d="M534.953161 914.147991l-246.451677-467.772997L38.566391 913.899175a23.264242 23.264242 0 0 0-8.832948 16.546226c0 35.207382 115.077133 63.696748 256.901925 63.696748s257.026333-28.489366 257.026332-63.696748a23.015427 23.015427 0 0 0-8.708539-16.29741z" fill="#B2EDA6" p-id="4237"></path><path d="M286.137737 1024c-47.772561 0-286.137737-4.603085-286.137737-93.554599A49.763085 49.763085 0 0 1 14.431295 895.735649l247.820161-463.418726a29.857851 29.857851 0 0 1 26.250028-15.675372 29.733443 29.733443 0 0 1 26.250027 15.924187L559.834703 896.357688a50.509531 50.509531 0 0 1 14.058071 34.087713c-0.497631 88.951514-239.360437 93.554599-287.755037 93.554599zM64.069972 929.325731c23.015427 14.182479 99.526169 35.082975 222.565396 35.082975S486.434153 943.50821 510.071618 929.325731l-0.746446-1.368484L288.252668 510.071743l-223.933881 418.134319z" fill="#3C663E" p-id="4238"></path><path d="M331.919775 1011.808044a19.905234 19.905234 0 0 1-0.622039-39.68606c26.996473-0.870854 52.997685-2.985785 77.257189-6.095978a19.905234 19.905234 0 0 1 4.976309 39.437245c-25.503581 3.234601-52.624462 5.349532-80.865013 6.344793z m-79.37212 0h-0.746446c-28.364958-1.244077-55.610247-3.483416-80.989421-6.842424a19.780826 19.780826 0 1 1 5.349532-39.312837c24.135096 3.234601 49.763085 5.349532 77.257189 6.469201a19.905234 19.905234 0 0 1-0.870854 39.68606z m236.374652-21.149311a19.905234 19.905234 0 0 1-5.473939-38.939614c39.188429-11.196694 47.27493-21.646942 48.270192-23.388649a19.905234 19.905234 0 0 1 19.905234-19.03438 19.780826 19.780826 0 0 1 19.780826 19.780826c0 26.125619-24.881542 45.906446-77.008373 60.835371a21.398126 21.398126 0 0 1-5.47394 0.622039z m-393.128369-1.492892a18.287934 18.287934 0 0 1-5.722755-0.870854c-48.643415-14.68011-72.156473-34.087713-72.156473-59.342479a40.059283 40.059283 0 0 1 1.368485-10.077024 19.780826 19.780826 0 0 1 38.441983 9.703801c1.741708 2.363747 10.201432 11.569917 43.791515 21.77135a19.780826 19.780826 0 0 1-5.722755 38.815206zM497.630847 909.918128a20.65168 20.65168 0 0 1-6.095978-0.870854 445.130793 445.130793 0 0 0-74.644627-15.924187 19.905234 19.905234 0 1 1 6.095978-39.312837 482.453106 482.453106 0 0 1 80.865013 17.41708 19.780826 19.780826 0 0 1-6.220386 38.690798z m-393.128369-3.981046a19.905234 19.905234 0 0 1-4.976309-39.064022 576.256521 576.256521 0 0 1 80.865013-14.928925 19.905234 19.905234 0 0 1 4.727493 39.437244 531.220929 531.220929 0 0 0-74.644627 13.809256 18.909972 18.909972 0 0 1-5.473939 0.746447z m236.374652-19.656419h-0.995261c-15.302149 0-31.226336-0.995262-46.7773-0.995262h-31.101928A19.905234 19.905234 0 0 1 261.256195 845.972564h33.216859c16.048595 0 32.09719 0 47.772561 1.11967a19.905234 19.905234 0 0 1-0.870854 39.68606z" fill="#3C663E" p-id="4239"></path></svg>