<?xml version="1.0" standalone="no"?><!DOCTYPE svg PUBLIC "-//W3C//DTD SVG 1.1//EN" "http://www.w3.org/Graphics/SVG/1.1/DTD/svg11.dtd"><svg t="1695484948402" class="icon" viewBox="0 0 1024 1024" version="1.1" xmlns="http://www.w3.org/2000/svg" p-id="4259" xmlns:xlink="http://www.w3.org/1999/xlink" width="200" height="200"><path d="M65.26 434.05h892.43v41.65H65.26z" fill="#233649" p-id="4260"></path><path d="M342.29 261.54L232.88 507.72l235.59 19.22zM817.19 467.55l-142.52 66.4-43.69 63.46 86.77 66.76 120.5-66.76z" fill="#9CD5E4" p-id="4261"></path><path d="M65.26 160h892.43v41.65H65.26zM65.26 674.41h892.43v41.65H65.26zM65.26 825.65h892.43v41.65H65.26z" fill="#233649" p-id="4262"></path><path d="M848.36 683.99c-43.05-36.68-38.52-161.12-36.11-198.39 1.2-44.55-7.87-77.68-26.27-94.89-16.88-15.78-37.17-14-38.05-13.95l-2.44 0.23-2.85-0.18c-75.49-7.19-92.19 49.49-93.85 55.95l-50.59-12.28c8.74-36.74 50.79-103.53 146.91-95.71 11.09-0.74 45.33-0.31 75.27 26.85 30.81 27.96 45.57 73.84 43.86 136.36-4.6 71.75 3.78 144.37 17.87 156.36l-33.75 39.65z" fill="#233649" p-id="4263"></path><path d="M715.53 692.29c-12.62 0-24.73-2.03-36.28-6.1-41.03-14.48-58.06-49.02-59.87-52.91l-1.12-2.84c-12.69-38.63-3.27-66.61 6.85-83.28 27.74-45.63 89.03-58 99.3-59.78 65.7-14.69 90.66-56.97 91.69-58.76l45.5 25.3c-1.44 2.62-36.43 64.58-126.59 84.44l-1.42 0.27c-13.12 2.22-50.35 12.98-64.05 35.67-6.26 10.38-7.05 22.88-2.37 38.15 5.46 10.18 30.41 46.37 94.35 15.34 13.18-8.02 47.91-32.21 63.58-56.18l43.58 28.49c-25.96 39.69-79.15 71.6-81.41 72.94l-1.79 0.98c-24.69 12.17-48.09 18.27-69.95 18.27zM493.3 704.98L331.59 304.14 177.92 704.56l-48.6-18.65 201.05-523.92 211.21 523.5z" fill="#233649" p-id="4264"></path><path d="M221.17 507.92h234.92v52.06H221.17z" fill="#233649" p-id="4265"></path></svg>